<?xml version="1.0" encoding="utf-8"?>
<!-- Generator: Adobe Illustrator 23.1.1, SVG Export Plug-In . SVG Version: 6.00 Build 0)  -->
<svg version="1.1" id="Layer_1" xmlns="http://www.w3.org/2000/svg" xmlns:xlink="http://www.w3.org/1999/xlink" x="0px" y="0px"
	 viewBox="0 0 635.9 380.4" style="enable-background:new 0 0 635.9 380.4;" xml:space="preserve">
<style type="text/css">
	.st0{fill:#121214;}
	.st1{fill:#FDFDFF;}
	.st2{fill:#FDFDFF;stroke:#FFFFFF;stroke-width:4;stroke-miterlimit:10;}
</style>
<path class="st0" d="M95.5,300.8v52.3c0,17.1-8.9,25.8-26.5,25.8H12.6V275.1H69C86.7,275.1,95.5,283.8,95.5,300.8z M69.3,305.1
	c0-5.8-2-7.7-8.2-7.7H38.8v59.3h22.3c6.1,0,8.2-2,8.2-7.7V305.1z"/>
<path class="st0" d="M153,297.4v17.3h41.4V337H153v19.7h47.5V379h-73.7V275.1h73.7v22.3H153z"/>
<path class="st0" d="M305.8,297.4h-29.6V379H250v-81.6h-29.6v-22.3h85.4V297.4z"/>
<path class="st0" d="M357.4,297.4v17.3h41.4V337h-41.4v19.7h47.5V379h-73.7V275.1h73.7v22.3H357.4z"/>
<path class="st0" d="M430.6,354.6v-55.2c0-17.1,8.9-25.8,26.4-25.8h32.8c17.5,0,26.4,8.7,26.4,25.7c0,1.2,0,1.6-0.1,2.2l-26.1,3.1
	v-0.9c0-5.8-2-7.7-8-7.7h-17.1c-6,0-8,1.9-8,7.7v46.8c0,5.7,2,7.7,8,7.7h17.1c6,0,8-2,8-7.7v-1l26.1,3.2c0.1,0.6,0.1,0.9,0.1,2
	c0,17.1-8.9,25.8-26.4,25.8H457C439.5,380.4,430.6,371.7,430.6,354.6z"/>
<path class="st0" d="M623.3,297.4h-29.6V379h-26.2v-81.6h-29.6v-22.3h85.4V297.4z"/>
<path class="st1" d="M135,232.7c-9.5,2.8-17.7,9.5-27.6,12.4c-15.9,4.9-32.9,7.4-49.5,7.4c-6.7,0-35-0.4-35-11
	c0-6.7,8.1-14.1,13.4-17.3c14.8-9.5,30.8-9.5,48.1-9.5c8.1,0,16.3,0.7,24.4,0.7c10.3,0,17.3-0.4,17.3-13.1c0-8.1-5.7-13.8-11.7-19.1
	c-4.2-3.5-7.1-6-12.4-8.5c-16.6-7.8-35.7-11-53.4-14.8C25.1,154.9,0,143.3,0,115c0-7.1,2.1-16.3,5.7-22.6
	c14.5-27.2,74.2-41.7,102.5-44.9c14.5-1.8,29.3-3.2,43.8-3.2c7.1,0,36.1,0,36.1,11.7c0,2.8-0.4,6.4-3.9,6.4c-6,0-13.1-4.6-21.2-4.6
	c-20.1,0-41,2.8-60.8,6.4c-24,4.2-54.8,12.7-73.2,29.7c-4.9,5-9.9,11.7-9.9,19.1c0,17.3,24.4,29,38.5,32.5
	c28.6,7.1,53,6.7,74.9,30.4c7.4,8.1,13.4,19.1,13.4,30c0,1.8-0.4,3.2-0.4,4.6c0,1.8,0.4,2.1,1.8,2.1c7.4,0,27.6-8.1,35-11.3
	c3.2-1.4,18.7-9.5,21.2-9.5c1.8,0,2.5,2.1,2.5,3.9C206.1,216.1,152.3,228.1,135,232.7z M90.1,232c-4.2,0-31.1,1.4-32.2,3.5
	c0.7,0.4,1.4,0.4,2.1,0.4h1.4c10.2,0,20.5-1.4,30.4-3.5C91.9,232.3,92.6,232,90.1,232z"/>
<path class="st1" d="M340.7,222.1C318.8,232.7,287.4,244,263,244c-3.9,0-7.8-0.4-11.7-1.1c-9.5-2.1-19.1-5.3-27.2-11.3
	c-1.1-0.7-5.3-4.2-6.4-4.2c-1.4,0-4.9,14.1-4.9,17c0,4.6,2.8,5.7,2.8,8.1c0,5.3-8.5,8.5-12.7,8.5c-6,0-9.9-3.5-12.4-8.5
	c-4.9-9.5-8.5-18.4-9.2-29c-0.4-2.5-0.4-10.6-4.2-10.6c-4.9,0-15.2,8.1-26.2,8.1c-2.5,0-8.8-0.7-8.8-3.9c0-1.8,1.4-3.2,2.5-4.2
	c1.8-1.4,9.5-4.9,12-6.4c7.4-3.5,14.1-8.1,20.5-13.4c4.9-3.9,4.9-12,5.3-17.7c2.1-39.2,12.4-73.2,29-108.9
	c6.4-13.8,19.4-35.3,37.1-35.3c12.7,0,21.2,11.3,24,22.6c2.5,8.5,6.4,15.2,6.4,24.4c0,4.6,0,9.2-0.7,13.8c-0.7,10.6-7.1,24-7.1,32.9
	c0,1.4,0,3.2,1.8,3.2c8.1,0,12.4-15.2,30-15.2c9.5,0,19.1,4.2,19.1,15.2c0,5.7-2.1,11.3-4.6,16.3c-13.1,25.1-39.9,45.2-67.5,50.9
	c-5.3,1.1-13.8,3.2-13.8,10.3c0,14.1,25.8,17.7,35.3,17.7c18,0,44.9-5.7,61.5-12.7c4.9-2.1,28.6-13.8,32.2-13.8
	c1.8,0,2.1,2.8,2.1,3.9C367.2,209.3,347.5,218.9,340.7,222.1z M214.2,193.4c-2.1,0-9.9,5.7-12.4,7.1c-1.8,1.4-3.2,1.4-3.2,3.9v1.4
	c0,3.9,0.4,14.1,2.8,14.1c1.4,0,2.5-2.8,3.2-3.9c2.1-4.6,10.6-17,10.6-21.2C215.3,194.1,215.3,193.4,214.2,193.4z M250.3,50.6
	c-11.3,0-23.3,26.2-27.2,34.6c-11.7,25.1-23.3,69.3-23.3,89.1c0,1.1,0,3.5,1.8,3.5c2.1,0,9.9-5.7,11.7-7.1
	c18.4-12,35.3-25.8,43.1-47c4.9-13.4,9.5-29.7,9.5-43.8C265.8,71.1,261.9,50.6,250.3,50.6z M300.4,131.2c-6.4,0-23.7,12.4-27.6,17.3
	c-4.6,5.3-15.6,17.7-15.6,24.7c0,1.1,0.7,1.4,1.8,1.4c4.9,0,19.8-11.7,24-14.8c7.4-5.7,19.8-15.9,19.8-25.8
	C302.9,132.3,302.2,131.2,300.4,131.2z"/>
<path class="st1" d="M441.8,222.4c-18.4,8.8-51.3,24-71,24c-6.4,0-13.1-1.4-15.6-7.4c-3.2-7.8-3.9-15.6-4.6-23.7
	c0-1.1,0-6.7-1.8-6.7c-1.8,0-19.8,12.4-32.2,12.4c-2.1,0-8.8-0.7-8.8-3.9c0-1.8,1.4-3.2,2.5-4.2c1.8-1.4,11.7-5.7,14.5-7.1
	c7.4-4.2,14.8-8.8,21.2-14.8c7.8-6.4,11.7-14.5,17-23c2.8-4.6,11-20.5,17-20.5c5.7,0,10.3,7.1,10.3,12.4c0,6.4-3.9,12.7-6.7,18.4
	c-5.3,9.9-12.7,29-12.7,40.3c0,6.4,2.1,9.2,8.8,9.2c12.7,0,35.3-9.5,48.1-14.5c5.7-2.1,35.3-16.6,38.5-16.6c1.8,0,2.1,2.8,2.1,3.9
	C468.3,209.3,448.5,218.9,441.8,222.4z"/>
<path class="st0" d="M408.9,69.7c-7.4,0-16.3-4.9-16.3-13.1c0-5.7,4.2-12.7,10.3-12.7c7.4,0,18.7,8.5,18.7,15.9
	C421.7,66.5,414.2,69.7,408.9,69.7z"/>
<path class="st1" d="M609.4,222.4c-18.4,10.3-37.8,17.3-59,19.4c-1.4,0.4-2.8,0.4-4.6,0.4c-26.9,0-18.7-26.9-23-33.9
	c-0.4-0.7-1.1-1.1-1.8-1.1c-7.4,0-24.4,17.7-28.6,23.3c-4.6,5.7-14.1,15.9-21.9,15.9c-7.1,0-7.4-8.5-7.4-13.8
	c0-7.1,1.1-14.5,1.1-21.6c0-1.8,0-9.5-2.8-9.5c-2.5,0-25.5,19.4-42.8,19.4c-2.1,0-8.8-0.7-8.8-3.9c0-1.8,1.4-3.2,2.5-4.2
	c1.8-1.4,11.3-6,14.1-7.4c7.4-4.2,14.8-8.8,21.6-14.5c6-4.9,11.3-10.3,16.3-15.9c4.9-5.3,24-30.8,30.8-30.8c4.9,0,9.9,1.8,9.9,7.4
	c0,13.8-17.7,43.1-17.7,53.4c0,0.4,0,2.1,1.1,2.1c4.6,0,44.9-38.2,58-38.2c7.8,0,10.2,8.5,10.2,14.8c0,10.6-7.8,19.4-7.8,29.7
	c0,5.7,3.5,7.8,8.8,7.8c1.8,0,3.2-0.4,4.9-0.7c23-3.5,28.6-5.3,49.1-14.1c6.7-3.2,18.4-9.5,23.3-9.5c0.7,1.1,1.1,2.1,1.1,3.5
	C635.9,208.6,615.7,218.9,609.4,222.4z"/>
<polygon class="st2" points="351.8,98.1 351.8,112.4 351.8,112.4 354.8,112.4 366.1,112.4 366.1,109.4 354.8,109.4 354.8,98.1 "/>
<polygon class="st2" points="366.1,2 351.8,2 351.8,2 351.8,5 351.8,16.3 354.8,16.3 354.8,5 366.1,5 "/>
<polygon class="st2" points="447.9,2 462.2,2 462.2,2 462.2,5 462.2,16.3 459.2,16.3 459.2,5 447.9,5 "/>
<polygon class="st2" points="462.2,98.1 462.2,112.4 462.2,112.4 459.2,112.4 447.9,112.4 447.9,109.4 459.2,109.4 459.2,98.1 "/>
</svg>
